<?xml version="1.0" encoding="UTF-8"?>
<svg xmlns="http://www.w3.org/2000/svg" viewBox="0 0 64 64" width="64px" height="64px">
<g id="surface15921413">
<path style=" stroke:none;fill-rule:nonzero;fill:rgb(100%,100%,100%);fill-opacity:1;" d="M 14.320312 14.324219 C 4.558594 24.085938 4.558594 39.914062 14.324219 49.679688 C 24.085938 59.441406 39.914062 59.441406 49.675781 49.675781 C 59.441406 39.914062 59.441406 24.085938 49.675781 14.320312 C 39.914062 4.558594 24.085938 4.558594 14.320312 14.324219 Z M 14.320312 14.324219 "/>
<path style=" stroke:none;fill-rule:nonzero;fill:rgb(0%,0%,0%);fill-opacity:1;" d="M 32 58.5 C 24.898438 58.5 18.25 55.75 13.25 50.75 C 2.898438 40.398438 2.898438 23.601562 13.25 13.25 C 18.25 8.25 24.898438 5.5 32 5.5 C 39.101562 5.5 45.75 8.25 50.75 13.25 C 55.75 18.25 58.5 24.898438 58.5 32 C 58.5 39.101562 55.75 45.75 50.75 50.75 C 45.75 55.75 39.101562 58.5 32 58.5 Z M 32 8.5 C 25.699219 8.5 19.800781 10.949219 15.398438 15.398438 C 6.25 24.550781 6.25 39.449219 15.398438 48.648438 C 19.800781 53.050781 25.699219 55.5 32 55.5 C 38.300781 55.5 44.199219 53.050781 48.601562 48.601562 C 53 44.148438 55.5 38.300781 55.5 32 C 55.5 25.699219 53.050781 19.800781 48.601562 15.398438 C 44.148438 11 38.300781 8.5 32 8.5 Z M 32 8.5 "/>
<path style=" stroke:none;fill-rule:nonzero;fill:rgb(0%,0%,0%);fill-opacity:1;" d="M 26.699219 38.800781 C 26.300781 38.800781 25.949219 38.648438 25.648438 38.351562 C 25.050781 37.75 25.050781 36.800781 25.648438 36.25 L 36.25 25.648438 C 36.851562 25.050781 37.800781 25.050781 38.351562 25.648438 C 38.949219 26.25 38.949219 27.199219 38.351562 27.75 L 27.75 38.351562 C 27.449219 38.648438 27.101562 38.800781 26.699219 38.800781 Z M 26.699219 38.800781 "/>
<path style=" stroke:none;fill-rule:nonzero;fill:rgb(0%,0%,0%);fill-opacity:1;" d="M 37.300781 38.800781 C 36.898438 38.800781 36.550781 38.648438 36.25 38.351562 L 25.648438 27.75 C 25.050781 27.148438 25.050781 26.199219 25.648438 25.648438 C 26.25 25.050781 27.199219 25.050781 27.75 25.648438 L 38.351562 36.25 C 38.949219 36.851562 38.949219 37.800781 38.351562 38.351562 C 38.050781 38.648438 37.699219 38.800781 37.300781 38.800781 Z M 37.300781 38.800781 "/>
</g>
</svg>
